<?xml version="1.0" encoding="UTF-8" standalone="no"?>
<svg
   xmlns:dc="http://purl.org/dc/elements/1.1/"
   xmlns:cc="http://creativecommons.org/ns#"
   xmlns:rdf="http://www.w3.org/1999/02/22-rdf-syntax-ns#"
   xmlns:svg="http://www.w3.org/2000/svg"
   xmlns="http://www.w3.org/2000/svg"
   viewBox="0 0 62.666668 66.666664"
   height="66.666664"
   width="62.666668"
   xml:space="preserve"
   id="svg2"
   version="1.1"><metadata
     id="metadata8"><rdf:RDF><cc:Work
         rdf:about=""><dc:format>image/svg+xml</dc:format><dc:type
           rdf:resource="http://purl.org/dc/dcmitype/StillImage" /></cc:Work></rdf:RDF></metadata><defs
     id="defs6" /><g
     transform="matrix(1.3333333,0,0,1.3333333,0,2e-6)"
     id="g10"><g
       id="g12"><path
         id="path14"
         style="fill:#000000;fill-opacity:1;fill-rule:nonzero;stroke:none"
         d="M 20.102,0 5.777,24.223 H 0 L 14.312,0 Z" /><path
         id="path16"
         style="fill:#000000;fill-opacity:1;fill-rule:nonzero;stroke:none"
         d="M 23,4.695 20,9.711 17.562,5.707 20.609,0.668 Z" /><path
         id="path18"
         style="fill:#000000;fill-opacity:1;fill-rule:nonzero;stroke:none"
         d="M 32.371,0 18.047,24.246 12.176,24.223 26.402,0 Z" /><path
         id="path20"
         style="fill:#000000;fill-opacity:1;fill-rule:nonzero;stroke:none"
         d="M 29.781,5.656 44.031,29.516 47,24.602 32.777,0.645 Z" /><path
         id="path22"
         style="fill:#000000;fill-opacity:1;fill-rule:nonzero;stroke:none"
         d="m 23.711,15.914 11.047,18.691 h 5.996 L 26.633,10.977 Z" /><path
         id="path24"
         style="fill:#000000;fill-opacity:1;fill-rule:nonzero;stroke:none"
         d="m 40.523,24.906 3,5.063 h -4.777 l -3.019,-5.063 z" /><path
         id="path26"
         style="fill:#000000;fill-opacity:1;fill-rule:nonzero;stroke:none"
         d="m 28.332,24.871 3.02,5.09 L 3.219,29.98 0.145,24.891 Z" /><path
         id="path28"
         style="fill:#000000;fill-opacity:1;fill-rule:nonzero;stroke:none"
         d="m 14.262,30.629 -2.332,3.93 H 5.973 l 2.402,-3.93 z" /><path
         id="path30"
         style="fill:#000000;fill-opacity:1;fill-rule:nonzero;stroke:none"
         d="M 9.348,40.473 H 37.551 L 40.52,35.301 H 6.289 Z" /><path
         id="path32"
         style="fill:#000000;fill-opacity:1;fill-rule:nonzero;stroke:none"
         d="m 0.371,43.352 h 1.516 v 2.351 h 2.476 v -2.351 h 1.508 v 6.402 H 4.363 V 47.07 H 1.887 v 2.684 H 0.371 Z" /><path
         id="path34"
         style="fill:#000000;fill-opacity:1;fill-rule:nonzero;stroke:none"
         d="m 7.367,43.352 h 3.957 v 1.32 H 8.855 v 1.156 h 2.114 v 1.313 H 8.855 v 1.265 h 2.504 v 1.348 H 7.367 Z" /><path
         id="path36"
         style="fill:#000000;fill-opacity:1;fill-rule:nonzero;stroke:none"
         d="m 12.547,43.141 h 0.144 l 4.004,3.738 v -3.527 h 1.414 V 50 h -0.136 l -4.008,-3.738 v 3.492 h -1.418 z" /><path
         id="path38"
         style="fill:#000000;fill-opacity:1;fill-rule:nonzero;stroke:none"
         d="m 19.598,43.141 h 0.144 l 4.004,3.738 V 43.352 H 25.16 V 50 h -0.137 l -4.007,-3.738 v 3.492 h -1.418 z" /><path
         id="path40"
         style="fill:#000000;fill-opacity:1;fill-rule:nonzero;stroke:none"
         d="m 26.648,43.352 h 1.532 v 5.027 h 2.508 v 1.375 h -4.04 z" /><path
         id="path42"
         style="fill:#000000;fill-opacity:1;fill-rule:nonzero;stroke:none"
         d="m 31.473,43.352 h 1.535 v 6.402 h -1.535 z" /><path
         id="path44"
         style="fill:#000000;fill-opacity:1;fill-rule:nonzero;stroke:none"
         d="m 37.527,44.535 c -1.082,0 -1.851,0.824 -1.851,2 0,1.176 0.754,1.973 1.851,1.973 0.653,0 1.297,-0.274 1.942,-0.817 l -0.102,1.704 c -0.543,0.371 -1.215,0.57 -1.914,0.57 -0.762,0 -1.469,-0.246 -2.051,-0.699 -0.816,-0.641 -1.277,-1.602 -1.277,-2.715 0,-0.949 0.336,-1.797 0.953,-2.43 0.625,-0.633 1.469,-0.988 2.383,-0.988 0.719,0 1.371,0.199 1.969,0.605 l -0.16,1.641 c -0.547,-0.563 -1.11,-0.844 -1.743,-0.844 z" /><path
         id="path46"
         style="fill:#000000;fill-opacity:1;fill-rule:nonzero;stroke:none"
         d="M 40.484,43.352 H 42 v 2.351 h 2.477 v -2.351 h 1.503 v 6.402 H 44.477 V 47.07 H 42 v 2.684 h -1.516 z" /></g></g></svg>