<svg xmlns="http://www.w3.org/2000/svg" xmlns:xlink="http://www.w3.org/1999/xlink" xmlns:inkscape="http://www.inkscape.org/namespaces/inkscape" version="1.1" width="207" height="41" viewBox="0 0 207 41">
<g>
<path d="M161.082 10.426V40.09H150.441V10.426H138.918V.918H172.605V10.426ZM161.082 10.426" fill="#3d3d3c" fill-rule="evenodd"/>
<path d="M199.613 27.387C197.711 29.648 194.898 31.082 191.746 31.082 186.016 31.082 181.371 26.344 181.371 20.5 181.371 14.656 186.016 9.918 191.746 9.918 194.898 9.918 197.711 11.352 199.613 13.613L207 7.156C203.312 2.777 197.848 0 191.746 0 180.648 0 171.648 9.18 171.648 20.5 171.648 31.82 180.648 41 191.746 41 197.848 41 203.312 38.223 207 33.844ZM199.613 27.387" fill="#3d3d3c" fill-rule="evenodd"/>
<path d="M195.941 20.5C195.941 22.867 194.062 24.785 191.738 24.785 189.418 24.785 187.535 22.867 187.535 20.5 187.535 18.133 189.418 16.223 191.738 16.223 194.062 16.223 195.941 18.141 195.941 20.5" fill="#0b9bd7" fill-rule="evenodd"/>
<path d="M130.027 26.434C134.801 24.359 137.93 20.395 137.93 14.402V14.285C137.93 10.426 136.777 7.402 134.527 5.164 131.949 2.477 127.891 .91 122.023 .91H114.512V10.312H121.477C125.047 10.312 127.238 11.879 127.238 14.949V15.066C127.238 17.918 125.148 19.715 121.535 19.715H114.512V28.223H119.172L126.902 40.082H139.191L130.027 26.426ZM130.027 26.434" fill="#3d3d3c" fill-rule="evenodd"/>
<path d="M0 .73H110.402V39.902H0Z" fill="#0b9bd7" fill-rule="evenodd"/>
<path d="M72.914 12.18C73.43 12.18 73.727 11.902 73.727 11.484V11.469C73.727 11.008 73.414 10.762 72.891 10.762H71.836V12.172H72.906ZM70.777 9.797H72.977C73.59 9.797 74.062 9.969 74.383 10.297 74.648 10.566 74.793 10.949 74.793 11.418V11.434C74.793 12.23 74.375 12.73 73.766 12.961L74.938 14.715H73.703L72.672 13.141H71.836V14.715H70.777ZM70.777 9.797" fill="#ffffff" fill-rule="evenodd"/>
<path d="M77.992 12.531C77.93 12.059 77.656 11.73 77.215 11.73 76.77 11.73 76.5 12.051 76.418 12.531ZM75.391 12.844V12.828C75.391 11.754 76.137 10.867 77.215 10.867 78.441 10.867 79.004 11.844 79.004 12.91 79.004 12.992 79.004 13.09 78.988 13.188H76.426C76.531 13.672 76.859 13.926 77.324 13.926 77.68 13.926 77.93 13.812 78.219 13.539L78.82 14.082C78.477 14.516 77.984 14.785 77.309 14.785 76.199 14.785 75.383 13.992 75.383 12.844" fill="#ffffff" fill-rule="evenodd"/>
<path d="M79.496 14.203 79.945 13.5C80.348 13.797 80.766 13.949 81.109 13.949 81.418 13.949 81.555 13.836 81.555 13.672V13.656C81.555 13.426 81.191 13.344 80.789 13.223 80.273 13.066 79.688 12.82 79.688 12.09V12.074C79.688 11.312 80.293 10.887 81.039 10.887 81.504 10.887 82.012 11.051 82.414 11.32L82.012 12.059C81.648 11.844 81.281 11.703 81.016 11.703 80.75 11.703 80.629 11.82 80.629 11.969V11.984C80.629 12.195 80.984 12.297 81.375 12.434 81.891 12.605 82.492 12.859 82.492 13.551V13.566C82.492 14.402 81.883 14.777 81.086 14.777 80.574 14.777 79.992 14.605 79.504 14.215" fill="#ffffff" fill-rule="evenodd"/>
<path d="M85.66 12.531C85.594 12.059 85.32 11.73 84.879 11.73 84.438 11.73 84.164 12.051 84.086 12.531ZM83.055 12.844V12.828C83.055 11.754 83.805 10.867 84.879 10.867 86.109 10.867 86.672 11.844 86.672 12.91 86.672 12.992 86.672 13.09 86.656 13.188H84.094C84.195 13.672 84.527 13.926 84.992 13.926 85.348 13.926 85.594 13.812 85.883 13.539L86.488 14.082C86.141 14.516 85.652 14.785 84.977 14.785 83.867 14.785 83.047 13.992 83.047 12.844" fill="#ffffff" fill-rule="evenodd"/>
<path d="M89.629 13.379V13.188C89.453 13.105 89.219 13.051 88.961 13.051 88.512 13.051 88.238 13.23 88.238 13.566V13.582C88.238 13.867 88.473 14.039 88.809 14.039 89.301 14.039 89.629 13.77 89.629 13.387M87.227 13.621V13.605C87.227 12.785 87.836 12.41 88.715 12.41 89.082 12.41 89.355 12.477 89.613 12.566V12.5C89.613 12.059 89.348 11.812 88.824 11.812 88.426 11.812 88.145 11.887 87.805 12.016L87.539 11.203C87.949 11.023 88.344 10.902 88.969 10.902 89.543 10.902 89.949 11.059 90.215 11.32 90.488 11.598 90.617 12.016 90.617 12.516V14.695H89.605V14.285C89.348 14.574 89.004 14.762 88.488 14.762 87.797 14.762 87.227 14.352 87.227 13.613" fill="#ffffff" fill-rule="evenodd"/>
<path d="M91.52 10.941H92.562V11.695C92.781 11.18 93.117 10.844 93.734 10.867V11.984H93.68C92.988 11.984 92.555 12.41 92.555 13.312V14.703H91.512V10.941ZM91.52 10.941" fill="#ffffff" fill-rule="evenodd"/>
<path d="M94.113 12.844V12.828C94.113 11.754 94.918 10.867 96.043 10.867 96.734 10.867 97.168 11.105 97.512 11.5L96.871 12.203C96.637 11.949 96.402 11.785 96.035 11.785 95.512 11.785 95.141 12.254 95.141 12.812V12.828C95.141 13.402 95.504 13.867 96.074 13.867 96.43 13.867 96.668 13.715 96.918 13.469L97.527 14.098C97.168 14.5 96.758 14.785 96.027 14.785 94.918 14.785 94.105 13.918 94.105 12.844" fill="#ffffff" fill-rule="evenodd"/>
<path d="M98.211 9.582H99.258V11.477C99.5 11.156 99.812 10.867 100.332 10.867 101.121 10.867 101.586 11.402 101.586 12.262V14.695H100.543V12.598C100.543 12.09 100.309 11.836 99.906 11.836 99.508 11.836 99.258 12.098 99.258 12.598V14.695H98.211V9.574ZM98.211 9.582" fill="#ffffff" fill-rule="evenodd"/>
<path d="M56.359 19.203V23.121H55.297V19.203H53.836V18.215H57.82V19.203ZM56.359 19.203" fill="#ffffff" fill-rule="evenodd"/>
<path d="M60.223 20.941C60.16 20.469 59.887 20.141 59.445 20.141 59.004 20.141 58.73 20.461 58.648 20.941ZM57.621 21.262V21.246C57.621 20.172 58.367 19.285 59.445 19.285 60.676 19.285 61.238 20.262 61.238 21.328 61.238 21.41 61.238 21.508 61.223 21.605H58.656C58.762 22.09 59.09 22.344 59.559 22.344 59.91 22.344 60.16 22.23 60.449 21.961L61.051 22.5C60.707 22.934 60.215 23.203 59.543 23.203 58.434 23.203 57.613 22.41 57.613 21.262" fill="#ffffff" fill-rule="evenodd"/>
<path d="M61.84 21.262V21.246C61.84 20.172 62.645 19.285 63.77 19.285 64.461 19.285 64.895 19.523 65.238 19.918L64.598 20.621C64.363 20.367 64.129 20.203 63.762 20.203 63.238 20.203 62.867 20.672 62.867 21.23V21.246C62.867 21.82 63.23 22.285 63.801 22.285 64.156 22.285 64.395 22.133 64.645 21.887L65.254 22.516C64.895 22.918 64.484 23.203 63.754 23.203 62.645 23.203 61.832 22.336 61.832 21.262" fill="#ffffff" fill-rule="evenodd"/>
<path d="M65.938 18H66.984V19.895C67.223 19.574 67.531 19.285 68.059 19.285 68.848 19.285 69.312 19.82 69.312 20.68V23.113H68.27V21.016C68.27 20.508 68.035 20.254 67.633 20.254 67.23 20.254 66.984 20.516 66.984 21.016V23.113H65.938V17.992ZM65.938 18" fill="#ffffff" fill-rule="evenodd"/>
<path d="M70.223 19.359H71.266V19.895C71.508 19.574 71.812 19.285 72.344 19.285 73.133 19.285 73.598 19.82 73.598 20.68V23.113H72.551V21.016C72.551 20.508 72.32 20.254 71.918 20.254 71.516 20.254 71.266 20.516 71.266 21.016V23.113H70.223V19.352ZM70.223 19.359" fill="#ffffff" fill-rule="evenodd"/>
<path d="M77.285 21.262V21.246C77.285 20.688 76.891 20.203 76.312 20.203 75.734 20.203 75.355 20.672 75.355 21.23V21.246C75.355 21.805 75.75 22.285 76.328 22.285 76.906 22.285 77.285 21.82 77.285 21.262M74.328 21.262V21.246C74.328 20.164 75.18 19.285 76.328 19.285 77.48 19.285 78.312 20.148 78.312 21.23V21.246C78.312 22.328 77.461 23.203 76.312 23.203 75.164 23.203 74.328 22.344 74.328 21.262" fill="#ffffff" fill-rule="evenodd"/>
<path d="M79.117 18H80.163997V23.121H79.117Z" fill="#ffffff" fill-rule="evenodd"/>
<path d="M83.922 21.262V21.246C83.922 20.688 83.531 20.203 82.953 20.203 82.371 20.203 81.996 20.672 81.996 21.23V21.246C81.996 21.805 82.391 22.285 82.969 22.285 83.547 22.285 83.922 21.82 83.922 21.262M80.965 21.262V21.246C80.965 20.164 81.816 19.285 82.969 19.285 84.117 19.285 84.953 20.148 84.953 21.23V21.246C84.953 22.328 84.102 23.203 82.953 23.203 81.801 23.203 80.965 22.344 80.965 21.262" fill="#ffffff" fill-rule="evenodd"/>
<path d="M88.383 21.059V21.039C88.383 20.531 87.988 20.172 87.484 20.172 86.977 20.172 86.594 20.531 86.594 21.039V21.059C86.594 21.574 86.977 21.926 87.484 21.926 87.988 21.926 88.383 21.566 88.383 21.059M85.73 23.859 86.086 23.059C86.465 23.277 86.84 23.402 87.332 23.402 88.047 23.402 88.383 23.051 88.383 22.379V22.195C88.07 22.574 87.734 22.805 87.18 22.805 86.32 22.805 85.539 22.164 85.539 21.051V21.031C85.539 19.91 86.328 19.277 87.18 19.277 87.75 19.277 88.086 19.523 88.367 19.844V19.352H89.414V22.262C89.414 22.934 89.25 23.426 88.945 23.746 88.602 24.098 88.07 24.254 87.355 24.254 86.762 24.254 86.191 24.113 85.723 23.859" fill="#ffffff" fill-rule="evenodd"/>
<path d="M90.402 19.359H91.445V23.121H90.402ZM90.367 18H91.469V18.949H90.367ZM90.367 18" fill="#ffffff" fill-rule="evenodd"/>
<path d="M92.25 21.262V21.246C92.25 20.172 93.055 19.285 94.18 19.285 94.871 19.285 95.305 19.523 95.648 19.918L95.008 20.621C94.773 20.367 94.539 20.203 94.172 20.203 93.648 20.203 93.277 20.672 93.277 21.23V21.246C93.277 21.82 93.641 22.285 94.211 22.285 94.562 22.285 94.805 22.133 95.055 21.887L95.664 22.516C95.305 22.918 94.895 23.203 94.16 23.203 93.055 23.203 92.242 22.336 92.242 21.262" fill="#ffffff" fill-rule="evenodd"/>
<path d="M98.535 21.797V21.605C98.355 21.523 98.125 21.469 97.867 21.469 97.418 21.469 97.145 21.648 97.145 21.984V22C97.145 22.285 97.375 22.461 97.715 22.461 98.203 22.461 98.535 22.188 98.535 21.805M96.133 22.039V22.023C96.133 21.203 96.742 20.828 97.617 20.828 97.988 20.828 98.262 20.895 98.52 20.984V20.918C98.52 20.477 98.254 20.23 97.73 20.23 97.328 20.23 97.047 20.305 96.711 20.434L96.445 19.621C96.855 19.441 97.246 19.32 97.875 19.32 98.445 19.32 98.855 19.477 99.121 19.738 99.395 20.016 99.523 20.434 99.523 20.934V23.113H98.508V22.703C98.254 22.992 97.906 23.18 97.395 23.18 96.703 23.18 96.133 22.77 96.133 22.031" fill="#ffffff" fill-rule="evenodd"/>
<path d="M100.469 18H101.516V23.121H100.469Z" fill="#ffffff" fill-rule="evenodd"/>
<path d="M79.055 29.09V29.074C79.055 27.68 80.082 26.531 81.562 26.531 82.469 26.531 83.016 26.844 83.457 27.285L82.781 28.082C82.414 27.738 82.035 27.523 81.555 27.523 80.742 27.523 80.156 28.215 80.156 29.059V29.074C80.156 29.918 80.727 30.613 81.555 30.613 82.098 30.613 82.438 30.395 82.816 30.039L83.488 30.738C82.992 31.277 82.445 31.613 81.512 31.613 80.098 31.613 79.047 30.5 79.047 29.09" fill="#ffffff" fill-rule="evenodd"/>
<path d="M86.582 29.359C86.52 28.887 86.246 28.559 85.805 28.559 85.363 28.559 85.09 28.879 85.008 29.359ZM83.988 29.672V29.656C83.988 28.582 84.734 27.695 85.812 27.695 87.043 27.695 87.605 28.672 87.605 29.738 87.605 29.82 87.605 29.918 87.59 30.016H85.023C85.129 30.5 85.457 30.754 85.926 30.754 86.277 30.754 86.527 30.641 86.816 30.367L87.418 30.91C87.074 31.344 86.582 31.613 85.91 31.613 84.801 31.613 83.98 30.82 83.98 29.672" fill="#ffffff" fill-rule="evenodd"/>
<path d="M88.375 27.77H89.422V28.305C89.66 27.984 89.969 27.695 90.496 27.695 91.285 27.695 91.75 28.23 91.75 29.09V31.523H90.707V29.426C90.707 28.918 90.473 28.664 90.07 28.664 89.668 28.664 89.422 28.926 89.422 29.426V31.523H88.375V27.762ZM88.375 27.77" fill="#ffffff" fill-rule="evenodd"/>
<path d="M92.836 30.469V28.688H92.395V27.777H92.836V26.82H93.879V27.777H94.75V28.688H93.879V30.297C93.879 30.539 93.984 30.664 94.219 30.664 94.41 30.664 94.578 30.613 94.734 30.531V31.387C94.516 31.516 94.258 31.605 93.906 31.605 93.262 31.605 92.836 31.344 92.836 30.477" fill="#ffffff" fill-rule="evenodd"/>
<path d="M97.836 29.359C97.77 28.887 97.496 28.559 97.055 28.559 96.613 28.559 96.34 28.879 96.258 29.359ZM95.23 29.672V29.656C95.23 28.582 95.977 27.695 97.055 27.695 98.285 27.695 98.848 28.672 98.848 29.738 98.848 29.82 98.848 29.918 98.832 30.016H96.27C96.371 30.5 96.703 30.754 97.168 30.754 97.52 30.754 97.77 30.641 98.059 30.367L98.664 30.91C98.316 31.344 97.828 31.613 97.152 31.613 96.043 31.613 95.223 30.82 95.223 29.672" fill="#ffffff" fill-rule="evenodd"/>
<path d="M99.625 27.77H100.672V28.523C100.887 28.008 101.227 27.672 101.844 27.695V28.812H101.789C101.098 28.812 100.664 29.238 100.664 30.141V31.523H99.617V27.762ZM99.625 27.77" fill="#ffffff" fill-rule="evenodd"/>
</g>
</svg>
